<svg width="31" height="4" viewBox="0 0 31 4" fill="none" xmlns="http://www.w3.org/2000/svg">
<path d="M0.370117 1.75C0.232046 1.75 0.120117 1.86193 0.120117 2C0.120117 2.13807 0.232046 2.25 0.370117 2.25V1.75ZM30.5469 2.17678C30.6445 2.07915 30.6445 1.92085 30.5469 1.82322L28.9559 0.232233C28.8583 0.134602 28.7 0.134602 28.6024 0.232233C28.5047 0.329864 28.5047 0.488155 28.6024 0.585787L30.0166 2L28.6024 3.41421C28.5047 3.51184 28.5047 3.67014 28.6024 3.76777C28.7 3.8654 28.8583 3.8654 28.9559 3.76777L30.5469 2.17678ZM0.370117 2.25H30.3701V1.75H0.370117V2.25Z" fill="#101010"/>
</svg>
