<svg width="146" height="69" viewBox="0 0 146 69" fill="none" xmlns="http://www.w3.org/2000/svg">
<path fill-rule="evenodd" clip-rule="evenodd" d="M33.6024 38.2724C34.2524 37.4452 34.8036 36.5533 35.2495 35.6147V43.653L38.0204 43.653V29.5713H44.5917L57.7347 43.653H62.05L48.43 29.5713H53.5102V26.755H45.706L35.2495 15.944V26.755H25.3469V29.5713H35.2495V29.5714H33.249C33.249 31.9733 32.4422 34.3057 30.958 36.1943C29.4739 38.0828 27.3983 39.4181 25.0645 39.986C22.7306 40.5538 20.2736 40.3212 18.0877 39.3256C15.9018 38.33 14.1137 36.6289 13.0102 34.4954C11.9067 32.3619 11.5519 29.9196 12.0025 27.5603C12.4532 25.201 13.6833 23.0615 15.4955 21.4849C17.3076 19.9083 19.5968 18.9862 21.9958 18.8663C24.3947 18.7465 26.7645 19.4359 28.7247 20.824L30.6683 18.0792C28.093 16.2556 24.9797 15.3498 21.828 15.5073C18.6762 15.6647 15.6687 16.8763 13.288 18.9475C10.9072 21.0188 9.29113 23.8297 8.69905 26.9293C8.10697 30.0289 8.57319 33.2376 10.0229 36.0405C11.4726 38.8435 13.8218 41.0782 16.6936 42.3863C19.5654 43.6943 22.7933 43.9999 25.8595 43.2539C28.9257 42.5078 31.6525 40.7535 33.6024 38.2724ZM38.0204 26.755H41.9632L38.0204 22.5306V26.755Z" fill="#BC9B73"/>
<path d="M8.68097 53.8369L10.737 48.2369H11.609L13.665 53.8369H12.809L11.169 49.1969L9.52097 53.8369H8.68097ZM9.60897 52.4529L9.83297 51.8129H12.465L12.689 52.4529H9.60897ZM19.6945 53.8369V48.2369H21.5905C22.0331 48.2369 22.3958 48.3116 22.6785 48.4609C22.9611 48.6102 23.1691 48.8102 23.3025 49.0609C23.4411 49.3062 23.5105 49.5862 23.5105 49.9009C23.5105 50.1996 23.4411 50.4769 23.3025 50.7329C23.1691 50.9836 22.9585 51.1862 22.6705 51.3409C22.3825 51.4902 22.0145 51.5649 21.5665 51.5649H20.4945V53.8369H19.6945ZM22.6385 53.8369L21.4305 51.3489H22.3105L23.5665 53.8369H22.6385ZM20.4945 50.9569H21.5425C21.9371 50.9569 22.2251 50.8609 22.4065 50.6689C22.5931 50.4716 22.6865 50.2209 22.6865 49.9169C22.6865 49.6076 22.5958 49.3622 22.4145 49.1809C22.2331 48.9996 21.9398 48.9089 21.5345 48.9089H20.4945V50.9569ZM32.1691 53.9329C31.6358 53.9329 31.1744 53.8129 30.7851 53.5729C30.3958 53.3276 30.0944 52.9889 29.8811 52.5569C29.6731 52.1196 29.5691 51.6129 29.5691 51.0369C29.5691 50.4662 29.6731 49.9622 29.8811 49.5249C30.0944 49.0876 30.3958 48.7489 30.7851 48.5089C31.1744 48.2636 31.6358 48.1409 32.1691 48.1409C32.8144 48.1409 33.3398 48.2982 33.7451 48.6129C34.1504 48.9276 34.4064 49.3702 34.5131 49.9409H33.6491C33.5638 49.6102 33.3984 49.3462 33.1531 49.1489C32.9078 48.9516 32.5771 48.8529 32.1611 48.8529C31.7984 48.8529 31.4838 48.9409 31.2171 49.1169C30.9504 49.2929 30.7451 49.5436 30.6011 49.8689C30.4571 50.1942 30.3851 50.5836 30.3851 51.0369C30.3851 51.4902 30.4571 51.8822 30.6011 52.2129C30.7451 52.5382 30.9504 52.7889 31.2171 52.9649C31.4838 53.1356 31.7984 53.2209 32.1611 53.2209C32.5771 53.2209 32.9078 53.1276 33.1531 52.9409C33.3984 52.7489 33.5638 52.4902 33.6491 52.1649H34.5131C34.4064 52.7196 34.1504 53.1542 33.7451 53.4689C33.3398 53.7782 32.8144 53.9329 32.1691 53.9329ZM44.2717 53.8369V48.2369H45.0717V53.8369H44.2717ZM40.7117 53.8369V48.2369H41.5117V53.8369H40.7117ZM41.3757 51.3089V50.6529H44.4477V51.3089H41.3757ZM51.4898 53.8369V48.2369H52.2898V53.8369H51.4898ZM60.0014 53.8369V48.8929H58.3454V48.2369H62.4654V48.8929H60.8014V53.8369H60.0014ZM68.5148 53.8369V48.2369H72.0508V48.8929H69.3148V50.6849H71.8108V51.3249H69.3148V53.1809H72.0508V53.8369H68.5148ZM80.7082 53.9329C80.1748 53.9329 79.7135 53.8129 79.3242 53.5729C78.9348 53.3276 78.6335 52.9889 78.4202 52.5569C78.2122 52.1196 78.1082 51.6129 78.1082 51.0369C78.1082 50.4662 78.2122 49.9622 78.4202 49.5249C78.6335 49.0876 78.9348 48.7489 79.3242 48.5089C79.7135 48.2636 80.1748 48.1409 80.7082 48.1409C81.3535 48.1409 81.8788 48.2982 82.2842 48.6129C82.6895 48.9276 82.9455 49.3702 83.0522 49.9409H82.1882C82.1028 49.6102 81.9375 49.3462 81.6922 49.1489C81.4468 48.9516 81.1162 48.8529 80.7002 48.8529C80.3375 48.8529 80.0228 48.9409 79.7562 49.1169C79.4895 49.2929 79.2842 49.5436 79.1402 49.8689C78.9962 50.1942 78.9242 50.5836 78.9242 51.0369C78.9242 51.4902 78.9962 51.8822 79.1402 52.2129C79.2842 52.5382 79.4895 52.7889 79.7562 52.9649C80.0228 53.1356 80.3375 53.2209 80.7002 53.2209C81.1162 53.2209 81.4468 53.1276 81.6922 52.9409C81.9375 52.7489 82.1028 52.4902 82.1882 52.1649H83.0522C82.9455 52.7196 82.6895 53.1542 82.2842 53.4689C81.8788 53.7782 81.3535 53.9329 80.7082 53.9329ZM90.4373 53.8369V48.8929H88.7813V48.2369H92.9013V48.8929H91.2373V53.8369H90.4373ZM100.983 53.9329C100.593 53.9329 100.239 53.8556 99.9187 53.7009C99.5987 53.5409 99.3427 53.3009 99.1507 52.9809C98.9641 52.6556 98.8707 52.2422 98.8707 51.7409V48.2369H99.6707V51.7489C99.6707 52.0849 99.7241 52.3622 99.8307 52.5809C99.9427 52.7942 100.1 52.9542 100.303 53.0609C100.505 53.1622 100.737 53.2129 100.999 53.2129C101.271 53.2129 101.505 53.1622 101.703 53.0609C101.9 52.9542 102.052 52.7942 102.159 52.5809C102.271 52.3622 102.327 52.0849 102.327 51.7489V48.2369H103.127V51.7409C103.127 52.2422 103.031 52.6556 102.839 52.9809C102.647 53.3009 102.388 53.5409 102.063 53.7009C101.743 53.8556 101.383 53.9329 100.983 53.9329ZM109.455 53.8369V48.2369H111.351C111.794 48.2369 112.157 48.3116 112.439 48.4609C112.722 48.6102 112.93 48.8102 113.063 49.0609C113.202 49.3062 113.271 49.5862 113.271 49.9009C113.271 50.1996 113.202 50.4769 113.063 50.7329C112.93 50.9836 112.719 51.1862 112.431 51.3409C112.143 51.4902 111.775 51.5649 111.327 51.5649H110.255V53.8369H109.455ZM112.399 53.8369L111.191 51.3489H112.071L113.327 53.8369H112.399ZM110.255 50.9569H111.303C111.698 50.9569 111.986 50.8609 112.167 50.6689C112.354 50.4716 112.447 50.2209 112.447 49.9169C112.447 49.6076 112.357 49.3622 112.175 49.1809C111.994 48.9996 111.701 48.9089 111.295 48.9089H110.255V50.9569ZM119.546 53.8369V48.2369H123.082V48.8929H120.346V50.6849H122.842V51.3249H120.346V53.1809H123.082V53.8369H119.546Z" fill="#BC9B73"/>
<path d="M74.6315 29.365H71.5515C70.9565 27.16 69.2765 26.075 66.5815 26.075C64.6565 26.075 63.1865 26.775 62.1365 28.14C61.1215 29.505 60.5965 31.15 60.5965 33.11C60.5965 34.895 61.1215 36.47 62.1365 37.8C63.1515 39.13 64.5865 39.795 66.3715 39.795C69.4165 39.795 71.2015 38.745 71.7615 36.12H74.8065C73.8615 40.635 71.0965 42.42 66.3015 42.42C63.6065 42.42 61.4365 41.58 59.8615 39.865C58.2865 38.15 57.5165 35.875 57.5165 33.11C57.5165 30.345 58.3565 28.07 60.0365 26.25C61.7515 24.395 63.9565 23.485 66.6865 23.485C68.9265 23.485 70.7815 24.01 72.2165 25.095C73.6515 26.18 74.4565 27.58 74.6315 29.365ZM85.5781 23.905V26.495H81.9731V38.22C81.9731 39.06 82.2181 39.34 83.3031 39.34H85.4031V42H81.8681C79.6281 42 78.8931 40.74 78.8931 38.535V26.495H75.9181V23.905H78.8931V19.6L81.8681 18.13H81.9731V23.905H85.5781ZM101.341 33.495V23.905H104.491V42H101.516V38.08H101.446C100.606 40.985 98.3656 42.42 95.5656 42.42C90.9806 42.42 88.6706 39.865 88.6706 35.805V23.905H91.8206V35.49C91.8206 38.675 93.3256 39.795 95.9856 39.795C99.5206 39.795 101.341 38.01 101.341 33.495ZM121.878 37.762C122.112 38.75 122.346 39.53 122.554 40.076C122.762 40.622 123.1 41.194 123.542 41.74V42H120.864C120.526 41.558 120.292 41.116 120.11 40.648C119.928 40.18 119.772 39.582 119.616 38.88C119.486 38.178 119.382 37.736 119.33 37.554C118.732 35.448 117.718 34.226 115.768 34.226H110.854V42H108.384V23.436H116.288C120.266 23.436 122.424 25.438 122.424 28.454C122.424 31.106 121.202 32.77 118.758 33.446C119.668 33.654 120.318 34.096 120.734 34.798C121.202 35.5 121.592 36.488 121.878 37.762ZM110.854 25.516V32.146H116.184C118.68 32.146 119.928 30.924 119.928 28.454C119.928 26.504 118.706 25.516 116.288 25.516H110.854Z" fill="#BC9B73"/>
<path fill-rule="evenodd" clip-rule="evenodd" d="M1.40815 4.22456H115.469V5.63272H1.40816L1.40815 66.1836H115.469V67.5918H1.40815L1.40816 67.592H0V4.22461H1.40815V4.22456Z" fill="#BC9B73"/>
</svg>
