<svg width="187" height="63" viewBox="0 0 187 63" fill="none" xmlns="http://www.w3.org/2000/svg">
<path d="M1 23.9345V60L6.18436 55.36V27.9418L30 9.80364L53.9777 27.9418V55.36L59 60V23.9345L30 2L1 23.9345Z" stroke="#BC9B73" stroke-width="2"/>
<path d="M15.095 34.48V49.6655L20.4413 47.9782V38.4873L30 31.3164L39.7207 38.4873V47.9782L44.743 49.6655V34.48L30 23.9345L15.095 34.48Z" stroke="#BC9B73" stroke-width="2"/>
<path d="M75.44 29L80.56 15H83.62L88.72 29H85.86L82.08 18.08L78.28 29H75.44ZM77.7 25.82L78.42 23.72H85.54L86.24 25.82H77.7ZM90.5597 29V15H95.7797C96.913 15 97.8464 15.1933 98.5797 15.58C99.313 15.9667 99.8597 16.4867 100.22 17.14C100.58 17.78 100.76 18.4933 100.76 19.28C100.76 20.0267 100.586 20.7267 100.24 21.38C99.893 22.02 99.3464 22.54 98.5997 22.94C97.8664 23.3267 96.9197 23.52 95.7597 23.52H93.2597V29H90.5597ZM97.8197 29L94.9397 22.84H97.8597L100.9 29H97.8197ZM93.2597 21.56H95.6197C96.433 21.56 97.033 21.36 97.4197 20.96C97.8064 20.56 97.9997 20.0333 97.9997 19.38C97.9997 18.7267 97.8064 18.2133 97.4197 17.84C97.0464 17.4533 96.4464 17.26 95.6197 17.26H93.2597V21.56ZM109.457 29.24C108.057 29.24 106.85 28.94 105.837 28.34C104.837 27.7267 104.064 26.88 103.517 25.8C102.984 24.7067 102.717 23.4467 102.717 22.02C102.717 20.5933 102.984 19.3333 103.517 18.24C104.064 17.1467 104.837 16.2933 105.837 15.68C106.85 15.0667 108.057 14.76 109.457 14.76C111.15 14.76 112.537 15.18 113.617 16.02C114.697 16.86 115.37 18.0467 115.637 19.58H112.697C112.524 18.8333 112.157 18.2533 111.597 17.84C111.05 17.4133 110.33 17.2 109.437 17.2C108.61 17.2 107.897 17.4 107.297 17.8C106.71 18.1867 106.257 18.74 105.937 19.46C105.617 20.1667 105.457 21.02 105.457 22.02C105.457 23.0067 105.617 23.86 105.937 24.58C106.257 25.3 106.71 25.8533 107.297 26.24C107.897 26.6267 108.61 26.82 109.437 26.82C110.33 26.82 111.05 26.6267 111.597 26.24C112.144 25.84 112.504 25.2867 112.677 24.58H115.637C115.37 26.0333 114.697 27.1733 113.617 28C112.537 28.8267 111.15 29.24 109.457 29.24ZM126.763 29V15H129.463V29H126.763ZM117.943 29V15H120.643V29H117.943ZM120.263 22.94V20.76H127.223V22.94H120.263ZM132.22 29V15H134.92V29H132.22ZM140.929 29V17.18H136.829V15H147.689V17.18H143.609V29H140.929ZM149.603 29V15H158.803V17.18H152.303V20.84H158.203V22.94H152.303V26.82H158.803V29H149.603ZM167.543 29.24C166.143 29.24 164.936 28.94 163.923 28.34C162.923 27.7267 162.149 26.88 161.603 25.8C161.069 24.7067 160.803 23.4467 160.803 22.02C160.803 20.5933 161.069 19.3333 161.603 18.24C162.149 17.1467 162.923 16.2933 163.923 15.68C164.936 15.0667 166.143 14.76 167.543 14.76C169.236 14.76 170.623 15.18 171.703 16.02C172.783 16.86 173.456 18.0467 173.723 19.58H170.783C170.609 18.8333 170.243 18.2533 169.683 17.84C169.136 17.4133 168.416 17.2 167.523 17.2C166.696 17.2 165.983 17.4 165.383 17.8C164.796 18.1867 164.343 18.74 164.023 19.46C163.703 20.1667 163.543 21.02 163.543 22.02C163.543 23.0067 163.703 23.86 164.023 24.58C164.343 25.3 164.796 25.8533 165.383 26.24C165.983 26.6267 166.696 26.82 167.523 26.82C168.416 26.82 169.136 26.6267 169.683 26.24C170.229 25.84 170.589 25.2867 170.763 24.58H173.723C173.456 26.0333 172.783 27.1733 171.703 28C170.623 28.8267 169.236 29.24 167.543 29.24ZM179.152 29V17.18H175.052V15H185.912V17.18H181.832V29H179.152ZM75.608 49V43.4H77.12C77.7707 43.4 78.3067 43.5147 78.728 43.744C79.1547 43.9733 79.4693 44.2987 79.672 44.72C79.88 45.136 79.984 45.632 79.984 46.208C79.984 46.784 79.88 47.28 79.672 47.696C79.4693 48.112 79.1547 48.4347 78.728 48.664C78.3067 48.888 77.7707 49 77.12 49H75.608ZM76.408 48.328H77.088C77.6 48.328 78.008 48.2427 78.312 48.072C78.616 47.9013 78.832 47.6587 78.96 47.344C79.0933 47.024 79.16 46.6453 79.16 46.208C79.16 45.7653 79.0933 45.384 78.96 45.064C78.832 44.744 78.616 44.4987 78.312 44.328C78.008 44.1573 77.6 44.072 77.088 44.072H76.408V48.328ZM86.1752 49V43.4H89.7112V44.056H86.9752V45.848H89.4712V46.488H86.9752V48.344H89.7112V49H86.1752ZM97.8166 49.096C97.4112 49.096 97.0539 49.024 96.7446 48.88C96.4352 48.7307 96.1952 48.5227 96.0246 48.256C95.8539 47.9893 95.7686 47.6773 95.7686 47.32H96.6086C96.6086 47.5227 96.6566 47.7093 96.7526 47.88C96.8486 48.0453 96.9846 48.1787 97.1606 48.28C97.3419 48.376 97.5606 48.424 97.8166 48.424C98.0406 48.424 98.2326 48.3867 98.3926 48.312C98.5579 48.2373 98.6832 48.136 98.7686 48.008C98.8539 47.8747 98.8966 47.7227 98.8966 47.552C98.8966 47.3707 98.8539 47.2187 98.7686 47.096C98.6886 46.968 98.5766 46.8613 98.4326 46.776C98.2886 46.6907 98.1179 46.6133 97.9206 46.544C97.7286 46.4747 97.5206 46.4053 97.2966 46.336C96.8272 46.1867 96.4832 45.9973 96.2646 45.768C96.0459 45.5333 95.9366 45.232 95.9366 44.864C95.9366 44.5493 96.0086 44.2773 96.1526 44.048C96.3019 43.8133 96.5126 43.632 96.7846 43.504C97.0566 43.3707 97.3739 43.304 97.7366 43.304C98.1046 43.304 98.4219 43.3707 98.6886 43.504C98.9606 43.6373 99.1739 43.8213 99.3286 44.056C99.4832 44.2907 99.5632 44.5653 99.5686 44.88H98.7206C98.7206 44.736 98.6832 44.5947 98.6086 44.456C98.5339 44.3173 98.4219 44.2053 98.2726 44.12C98.1232 44.0293 97.9392 43.984 97.7206 43.984C97.5392 43.9787 97.3766 44.008 97.2326 44.072C97.0886 44.136 96.9739 44.2293 96.8886 44.352C96.8086 44.4747 96.7686 44.6213 96.7686 44.792C96.7686 44.9627 96.8059 45.1013 96.8806 45.208C96.9552 45.3093 97.0592 45.3973 97.1926 45.472C97.3312 45.5467 97.4939 45.616 97.6806 45.68C97.8672 45.7387 98.0726 45.8053 98.2966 45.88C98.5686 45.9707 98.8139 46.0827 99.0326 46.216C99.2512 46.344 99.4219 46.512 99.5446 46.72C99.6726 46.9227 99.7366 47.184 99.7366 47.504C99.7366 47.7813 99.6646 48.04 99.5206 48.28C99.3766 48.52 99.1632 48.7173 98.8806 48.872C98.5979 49.0213 98.2432 49.096 97.8166 49.096ZM105.942 49V43.4H106.742V49H105.942ZM115.574 49.096C115.046 49.096 114.585 48.976 114.19 48.736C113.795 48.496 113.489 48.16 113.27 47.728C113.051 47.296 112.942 46.792 112.942 46.216C112.942 45.6453 113.051 45.1413 113.27 44.704C113.494 44.2667 113.811 43.9253 114.222 43.68C114.638 43.4293 115.129 43.304 115.694 43.304C116.334 43.304 116.865 43.4587 117.286 43.768C117.713 44.072 117.987 44.496 118.11 45.04H117.198C117.118 44.7307 116.95 44.488 116.694 44.312C116.438 44.1307 116.102 44.04 115.686 44.04C115.291 44.04 114.947 44.128 114.654 44.304C114.366 44.48 114.145 44.7307 113.99 45.056C113.835 45.3813 113.758 45.768 113.758 46.216C113.758 46.6693 113.835 47.0587 113.99 47.384C114.145 47.7093 114.363 47.9573 114.646 48.128C114.929 48.2987 115.254 48.384 115.622 48.384C116.187 48.384 116.614 48.2213 116.902 47.896C117.19 47.5707 117.355 47.136 117.398 46.592H115.854V45.976H118.214V49H117.478L117.414 48.144C117.281 48.352 117.129 48.528 116.958 48.672C116.793 48.8107 116.598 48.9173 116.374 48.992C116.15 49.0613 115.883 49.096 115.574 49.096ZM124.506 49V43.4H125.306L128.162 47.704V43.4H128.962V49H128.162L125.306 44.704V49H124.506ZM142.656 49V43.4H144.728C145.123 43.4 145.451 43.464 145.712 43.592C145.974 43.7147 146.168 43.8853 146.296 44.104C146.43 44.3173 146.496 44.56 146.496 44.832C146.496 45.1147 146.432 45.352 146.304 45.544C146.182 45.736 146.019 45.8853 145.816 45.992C145.619 46.0933 145.406 46.152 145.176 46.168L145.296 46.088C145.542 46.0933 145.763 46.16 145.96 46.288C146.163 46.4107 146.323 46.576 146.44 46.784C146.563 46.992 146.624 47.2213 146.624 47.472C146.624 47.76 146.552 48.0213 146.408 48.256C146.27 48.4853 146.064 48.6667 145.792 48.8C145.526 48.9333 145.195 49 144.8 49H142.656ZM143.456 48.336H144.696C145.043 48.336 145.315 48.256 145.512 48.096C145.71 47.9307 145.808 47.6987 145.808 47.4C145.808 47.1067 145.707 46.872 145.504 46.696C145.302 46.52 145.027 46.432 144.68 46.432H143.456V48.336ZM143.456 45.816H144.64C144.976 45.816 145.232 45.7387 145.408 45.584C145.584 45.424 145.672 45.2053 145.672 44.928C145.672 44.6613 145.584 44.4507 145.408 44.296C145.232 44.136 144.971 44.056 144.624 44.056H143.456V45.816ZM154.834 49.096C154.444 49.096 154.09 49.0187 153.77 48.864C153.45 48.704 153.194 48.464 153.002 48.144C152.815 47.8187 152.722 47.4053 152.722 46.904V43.4H153.522V46.912C153.522 47.248 153.575 47.5253 153.682 47.744C153.794 47.9573 153.951 48.1173 154.154 48.224C154.356 48.3253 154.588 48.376 154.85 48.376C155.122 48.376 155.356 48.3253 155.554 48.224C155.751 48.1173 155.903 47.9573 156.01 47.744C156.122 47.5253 156.178 47.248 156.178 46.912V43.4H156.978V46.904C156.978 47.4053 156.882 47.8187 156.69 48.144C156.498 48.464 156.239 48.704 155.914 48.864C155.594 49.0187 155.234 49.096 154.834 49.096ZM163.306 49V43.4H164.106V49H163.306ZM170.522 49V43.4H171.322V48.368H173.882V49H170.522ZM180.058 49V43.4H181.57C182.221 43.4 182.757 43.5147 183.178 43.744C183.605 43.9733 183.919 44.2987 184.122 44.72C184.33 45.136 184.434 45.632 184.434 46.208C184.434 46.784 184.33 47.28 184.122 47.696C183.919 48.112 183.605 48.4347 183.178 48.664C182.757 48.888 182.221 49 181.57 49H180.058ZM180.858 48.328H181.538C182.05 48.328 182.458 48.2427 182.762 48.072C183.066 47.9013 183.282 47.6587 183.41 47.344C183.543 47.024 183.61 46.6453 183.61 46.208C183.61 45.7653 183.543 45.384 183.41 45.064C183.282 44.744 183.066 44.4987 182.762 44.328C182.458 44.1573 182.05 44.072 181.538 44.072H180.858V48.328Z" fill="#BC9B73"/>
</svg>
