<svg width="245" height="101" viewBox="0 0 245 101" fill="none" xmlns="http://www.w3.org/2000/svg">
<path d="M0 30.6748H53.6585M106.911 30.6748H80.2846M39.0244 14.0081V47.3415M39.0244 101V47.3415M19.9187 90.4309H53.6585M106.098 90.4309H62.6016M94.3089 11.9756V61.5691M94.3089 96.122V61.5691M36.9919 53.439H121.138M39.0244 47.3415H62.6016V90.4309M62.6016 90.4309H53.6585M53.6585 90.4309V30.6748M53.6585 30.6748H80.2846M80.2846 30.6748V55.065M80.2846 55.065V79.4553H65.8537V62.7886L80.2846 55.065ZM94.3089 61.5691L80.8943 55.065M71.9512 95.3089V12.7886M68.6992 1L122.358 66.8537" stroke="#BC9B73" stroke-width="2"/>
<path d="M136.8 38.12C136.113 38.12 135.52 37.97 135.02 37.67C134.527 37.3633 134.143 36.94 133.87 36.4C133.603 35.8533 133.47 35.22 133.47 34.5C133.47 33.7867 133.603 33.1567 133.87 32.61C134.143 32.0633 134.527 31.64 135.02 31.34C135.52 31.0333 136.113 30.88 136.8 30.88C137.62 30.88 138.283 31.0767 138.79 31.47C139.303 31.8633 139.63 32.4167 139.77 33.13H138.67C138.57 32.7167 138.363 32.3867 138.05 32.14C137.743 31.8933 137.327 31.77 136.8 31.77C136.327 31.77 135.917 31.88 135.57 32.1C135.223 32.32 134.957 32.6333 134.77 33.04C134.583 33.4467 134.49 33.9333 134.49 34.5C134.49 35.0667 134.583 35.5567 134.77 35.97C134.957 36.3767 135.223 36.69 135.57 36.91C135.917 37.1233 136.327 37.23 136.8 37.23C137.327 37.23 137.743 37.1133 138.05 36.88C138.363 36.64 138.57 36.3167 138.67 35.91H139.77C139.63 36.6033 139.303 37.1467 138.79 37.54C138.283 37.9267 137.62 38.12 136.8 38.12ZM147.466 38V31H149.836C150.39 31 150.843 31.0933 151.196 31.28C151.55 31.4667 151.81 31.7167 151.976 32.03C152.15 32.3367 152.236 32.6867 152.236 33.08C152.236 33.4533 152.15 33.8 151.976 34.12C151.81 34.4333 151.546 34.6867 151.186 34.88C150.826 35.0667 150.366 35.16 149.806 35.16H148.466V38H147.466ZM151.146 38L149.636 34.89H150.736L152.306 38H151.146ZM148.466 34.4H149.766C150.26 34.4 150.623 34.28 150.856 34.04C151.09 33.7933 151.206 33.48 151.206 33.1C151.206 32.7133 151.093 32.4067 150.866 32.18C150.64 31.9533 150.273 31.84 149.766 31.84H148.466V34.4ZM160.031 38V31H164.451V31.82H161.031V34.06H164.151V34.86H161.031V37.18H164.451V38H160.031ZM171.794 38L174.364 31H175.454L178.024 38H176.954L174.904 32.2L172.844 38H171.794ZM172.954 36.27L173.234 35.47H176.524L176.804 36.27H172.954ZM186.38 38V31.82H184.31V31H189.46V31.82H187.38V38H186.38ZM196.972 38V31H197.972V38H196.972ZM208.003 38L205.403 31H206.483L208.603 36.96L210.743 31H211.803L209.203 38H208.003ZM219.23 38V31H223.65V31.82H220.23V34.06H223.35V34.86H220.23V37.18H223.65V38H219.23ZM134.242 58V45.4H139.408C140.284 45.4 141.022 45.538 141.622 45.814C142.222 46.09 142.672 46.474 142.972 46.966C143.284 47.446 143.44 48.004 143.44 48.64C143.44 49.276 143.302 49.81 143.026 50.242C142.75 50.674 142.384 51.01 141.928 51.25C141.484 51.478 140.992 51.61 140.452 51.646L140.74 51.448C141.316 51.472 141.826 51.628 142.27 51.916C142.726 52.192 143.08 52.564 143.332 53.032C143.596 53.5 143.728 54.01 143.728 54.562C143.728 55.234 143.566 55.828 143.242 56.344C142.918 56.86 142.45 57.268 141.838 57.568C141.226 57.856 140.476 58 139.588 58H134.242ZM136.672 56.02H139.192C139.852 56.02 140.362 55.87 140.722 55.57C141.082 55.27 141.262 54.838 141.262 54.274C141.262 53.71 141.076 53.272 140.704 52.96C140.332 52.636 139.816 52.474 139.156 52.474H136.672V56.02ZM136.672 50.656H139.012C139.648 50.656 140.128 50.512 140.452 50.224C140.788 49.936 140.956 49.528 140.956 49C140.956 48.484 140.788 48.082 140.452 47.794C140.128 47.494 139.642 47.344 138.994 47.344H136.672V50.656ZM154.199 58.216C153.275 58.216 152.435 58.03 151.679 57.658C150.923 57.286 150.323 56.728 149.879 55.984C149.435 55.24 149.213 54.292 149.213 53.14V45.4H151.643V53.158C151.643 53.782 151.745 54.31 151.949 54.742C152.153 55.162 152.447 55.474 152.831 55.678C153.227 55.882 153.695 55.984 154.235 55.984C154.787 55.984 155.255 55.882 155.639 55.678C156.035 55.474 156.335 55.162 156.539 54.742C156.743 54.31 156.845 53.782 156.845 53.158V45.4H159.275V53.14C159.275 54.292 159.047 55.24 158.591 55.984C158.135 56.728 157.517 57.286 156.737 57.658C155.969 58.03 155.123 58.216 154.199 58.216ZM165.243 58V45.4H167.673V58H165.243ZM173.747 58V45.4H176.177V56.11H181.703V58H173.747ZM187.384 58V45.4H191.596C193.06 45.4 194.266 45.664 195.214 46.192C196.174 46.708 196.882 47.44 197.338 48.388C197.806 49.324 198.04 50.428 198.04 51.7C198.04 52.972 197.806 54.082 197.338 55.03C196.882 55.966 196.18 56.698 195.232 57.226C194.284 57.742 193.072 58 191.596 58H187.384ZM189.814 55.912H191.47C192.502 55.912 193.312 55.744 193.9 55.408C194.5 55.072 194.926 54.592 195.178 53.968C195.43 53.332 195.556 52.576 195.556 51.7C195.556 50.812 195.43 50.056 195.178 49.432C194.926 48.796 194.5 48.31 193.9 47.974C193.312 47.638 192.502 47.47 191.47 47.47H189.814V55.912ZM208.589 58.216C207.665 58.216 206.825 58.03 206.069 57.658C205.313 57.286 204.713 56.728 204.269 55.984C203.825 55.24 203.603 54.292 203.603 53.14V45.4H206.033V53.158C206.033 53.782 206.135 54.31 206.339 54.742C206.543 55.162 206.837 55.474 207.221 55.678C207.617 55.882 208.085 55.984 208.625 55.984C209.177 55.984 209.645 55.882 210.029 55.678C210.425 55.474 210.725 55.162 210.929 54.742C211.133 54.31 211.235 53.782 211.235 53.158V45.4H213.665V53.14C213.665 54.292 213.437 55.24 212.981 55.984C212.525 56.728 211.907 57.286 211.127 57.658C210.359 58.03 209.513 58.216 208.589 58.216ZM219.633 58V45.4H224.331C225.351 45.4 226.191 45.574 226.851 45.922C227.511 46.27 228.003 46.738 228.327 47.326C228.651 47.902 228.813 48.544 228.813 49.252C228.813 49.924 228.657 50.554 228.345 51.142C228.033 51.718 227.541 52.186 226.869 52.546C226.209 52.894 225.357 53.068 224.313 53.068H222.063V58H219.633ZM226.167 58L223.575 52.456H226.203L228.939 58H226.167ZM222.063 51.304H224.187C224.919 51.304 225.459 51.124 225.807 50.764C226.155 50.404 226.329 49.93 226.329 49.342C226.329 48.754 226.155 48.292 225.807 47.956C225.471 47.608 224.931 47.434 224.187 47.434H222.063V51.304ZM238.926 58.216C238.014 58.216 237.198 58.06 236.478 57.748C235.77 57.436 235.206 56.98 234.786 56.38C234.378 55.78 234.168 55.054 234.156 54.202H236.73C236.742 54.574 236.838 54.91 237.018 55.21C237.198 55.51 237.444 55.75 237.756 55.93C238.08 56.098 238.464 56.182 238.908 56.182C239.292 56.182 239.622 56.122 239.898 56.002C240.186 55.87 240.408 55.69 240.564 55.462C240.72 55.234 240.798 54.964 240.798 54.652C240.798 54.292 240.708 53.992 240.528 53.752C240.36 53.512 240.12 53.308 239.808 53.14C239.508 52.972 239.154 52.822 238.746 52.69C238.35 52.546 237.93 52.396 237.486 52.24C236.49 51.916 235.728 51.484 235.2 50.944C234.684 50.404 234.426 49.69 234.426 48.802C234.426 48.046 234.606 47.398 234.966 46.858C235.338 46.318 235.848 45.904 236.496 45.616C237.144 45.328 237.882 45.184 238.71 45.184C239.562 45.184 240.306 45.334 240.942 45.634C241.59 45.922 242.1 46.342 242.472 46.894C242.856 47.446 243.054 48.094 243.066 48.838H240.474C240.462 48.562 240.378 48.304 240.222 48.064C240.078 47.812 239.874 47.614 239.61 47.47C239.346 47.314 239.034 47.236 238.674 47.236C238.362 47.224 238.074 47.272 237.81 47.38C237.558 47.488 237.354 47.65 237.198 47.866C237.054 48.07 236.982 48.328 236.982 48.64C236.982 48.94 237.054 49.192 237.198 49.396C237.354 49.6 237.564 49.78 237.828 49.936C238.092 50.08 238.404 50.218 238.764 50.35C239.124 50.47 239.514 50.596 239.934 50.728C240.558 50.944 241.134 51.202 241.662 51.502C242.19 51.79 242.61 52.168 242.922 52.636C243.234 53.104 243.39 53.722 243.39 54.49C243.39 55.15 243.216 55.762 242.868 56.326C242.52 56.89 242.016 57.346 241.356 57.694C240.708 58.042 239.898 58.216 238.926 58.216ZM133.28 78L135.85 71H136.94L139.51 78H138.44L136.39 72.2L134.33 78H133.28ZM134.44 76.27L134.72 75.47H138.01L138.29 76.27H134.44ZM147.007 78V71H149.377C149.931 71 150.384 71.0933 150.737 71.28C151.091 71.4667 151.351 71.7167 151.517 72.03C151.691 72.3367 151.777 72.6867 151.777 73.08C151.777 73.4533 151.691 73.8 151.517 74.12C151.351 74.4333 151.087 74.6867 150.727 74.88C150.367 75.0667 149.907 75.16 149.347 75.16H148.007V78H147.007ZM150.687 78L149.177 74.89H150.277L151.847 78H150.687ZM148.007 74.4H149.307C149.801 74.4 150.164 74.28 150.397 74.04C150.631 73.7933 150.747 73.48 150.747 73.1C150.747 72.7133 150.634 72.4067 150.407 72.18C150.181 71.9533 149.814 71.84 149.307 71.84H148.007V74.4ZM162.642 78.12C161.955 78.12 161.362 77.97 160.862 77.67C160.368 77.3633 159.985 76.94 159.712 76.4C159.445 75.8533 159.312 75.22 159.312 74.5C159.312 73.7867 159.445 73.1567 159.712 72.61C159.985 72.0633 160.368 71.64 160.862 71.34C161.362 71.0333 161.955 70.88 162.642 70.88C163.462 70.88 164.125 71.0767 164.632 71.47C165.145 71.8633 165.472 72.4167 165.612 73.13H164.512C164.412 72.7167 164.205 72.3867 163.892 72.14C163.585 71.8933 163.168 71.77 162.642 71.77C162.168 71.77 161.758 71.88 161.412 72.1C161.065 72.32 160.798 72.6333 160.612 73.04C160.425 73.4467 160.332 73.9333 160.332 74.5C160.332 75.0667 160.425 75.5567 160.612 75.97C160.798 76.3767 161.065 76.69 161.412 76.91C161.758 77.1233 162.168 77.23 162.642 77.23C163.168 77.23 163.585 77.1133 163.892 76.88C164.205 76.64 164.412 76.3167 164.512 75.91H165.612C165.472 76.6033 165.145 77.1467 164.632 77.54C164.125 77.9267 163.462 78.12 162.642 78.12ZM177.758 78V71H178.758V78H177.758ZM173.308 78V71H174.308V78H173.308ZM174.138 74.84V74.02H177.978V74.84H174.138ZM186.722 78V71H187.722V78H186.722ZM197.313 78V71.82H195.243V71H200.393V71.82H198.313V78H197.313ZM207.906 78V71H212.326V71.82H208.906V74.06H212.026V74.86H208.906V77.18H212.326V78H207.906ZM223.189 78.12C222.502 78.12 221.909 77.97 221.409 77.67C220.915 77.3633 220.532 76.94 220.259 76.4C219.992 75.8533 219.859 75.22 219.859 74.5C219.859 73.7867 219.992 73.1567 220.259 72.61C220.532 72.0633 220.915 71.64 221.409 71.34C221.909 71.0333 222.502 70.88 223.189 70.88C224.009 70.88 224.672 71.0767 225.179 71.47C225.692 71.8633 226.019 72.4167 226.159 73.13H225.059C224.959 72.7167 224.752 72.3867 224.439 72.14C224.132 71.8933 223.715 71.77 223.189 71.77C222.715 71.77 222.305 71.88 221.959 72.1C221.612 72.32 221.345 72.6333 221.159 73.04C220.972 73.4467 220.879 73.9333 220.879 74.5C220.879 75.0667 220.972 75.5567 221.159 75.97C221.345 76.3767 221.612 76.69 221.959 76.91C222.305 77.1233 222.715 77.23 223.189 77.23C223.715 77.23 224.132 77.1133 224.439 76.88C224.752 76.64 224.959 76.3167 225.059 75.91H226.159C226.019 76.6033 225.692 77.1467 225.179 77.54C224.672 77.9267 224.009 78.12 223.189 78.12ZM235.348 78V71.82H233.278V71H238.428V71.82H236.348V78H235.348Z" fill="#BC9B73"/>
</svg>
