<svg width="120" height="98" viewBox="0 0 120 98" fill="none" xmlns="http://www.w3.org/2000/svg">
<path d="M31.944 29V18.953H28.459V17.1H37.69V18.953H34.222V29H31.944ZM46.8136 29V17.1H49.1086V29H46.8136ZM39.3166 29V17.1H41.6116V29H39.3166ZM41.2886 23.849V21.996H47.2046V23.849H41.2886ZM51.4523 29V17.1H59.2723V18.953H53.7473V22.064H58.7623V23.849H53.7473V27.147H59.2723V29H51.4523ZM29.173 54V42.1H33.151C34.5337 42.1 35.6727 42.3493 36.568 42.848C37.4747 43.3353 38.1433 44.0267 38.574 44.922C39.016 45.806 39.237 46.8487 39.237 48.05C39.237 49.2513 39.016 50.2997 38.574 51.195C38.1433 52.079 37.4803 52.7703 36.585 53.269C35.6897 53.7563 34.545 54 33.151 54H29.173ZM31.468 52.028H33.032C34.0067 52.028 34.7717 51.8693 35.327 51.552C35.8937 51.2347 36.296 50.7813 36.534 50.192C36.772 49.5913 36.891 48.8773 36.891 48.05C36.891 47.2113 36.772 46.4973 36.534 45.908C36.296 45.3073 35.8937 44.8483 35.327 44.531C34.7717 44.2137 34.0067 44.055 33.032 44.055H31.468V52.028ZM41.1925 54V42.1H49.0125V43.953H43.4875V47.064H48.5025V48.849H43.4875V52.147H49.0125V54H41.1925ZM55.2007 54.204C54.3393 54.204 53.5687 54.0567 52.8887 53.762C52.22 53.4673 51.6873 53.0367 51.2907 52.47C50.9053 51.9033 50.707 51.2177 50.6957 50.413H53.1267C53.138 50.7643 53.2287 51.0817 53.3987 51.365C53.5687 51.6483 53.801 51.875 54.0957 52.045C54.4017 52.2037 54.7643 52.283 55.1837 52.283C55.5463 52.283 55.858 52.2263 56.1187 52.113C56.3907 51.9883 56.6003 51.8183 56.7477 51.603C56.895 51.3877 56.9687 51.1327 56.9687 50.838C56.9687 50.498 56.8837 50.2147 56.7137 49.988C56.555 49.7613 56.3283 49.5687 56.0337 49.41C55.7503 49.2513 55.416 49.1097 55.0307 48.985C54.6567 48.849 54.26 48.7073 53.8407 48.56C52.9 48.254 52.1803 47.846 51.6817 47.336C51.1943 46.826 50.9507 46.1517 50.9507 45.313C50.9507 44.599 51.1207 43.987 51.4607 43.477C51.812 42.967 52.2937 42.576 52.9057 42.304C53.5177 42.032 54.2147 41.896 54.9967 41.896C55.8013 41.896 56.504 42.0377 57.1047 42.321C57.7167 42.593 58.1983 42.9897 58.5497 43.511C58.9123 44.0323 59.0993 44.6443 59.1107 45.347H56.6627C56.6513 45.0863 56.572 44.8427 56.4247 44.616C56.2887 44.378 56.096 44.191 55.8467 44.055C55.5973 43.9077 55.3027 43.834 54.9627 43.834C54.668 43.8227 54.396 43.868 54.1467 43.97C53.9087 44.072 53.716 44.225 53.5687 44.429C53.4327 44.6217 53.3647 44.8653 53.3647 45.16C53.3647 45.4433 53.4327 45.6813 53.5687 45.874C53.716 46.0667 53.9143 46.2367 54.1637 46.384C54.413 46.52 54.7077 46.6503 55.0477 46.775C55.3877 46.8883 55.756 47.0073 56.1527 47.132C56.742 47.336 57.286 47.5797 57.7847 47.863C58.2833 48.135 58.68 48.492 58.9747 48.934C59.2693 49.376 59.4167 49.9597 59.4167 50.685C59.4167 51.3083 59.2523 51.8863 58.9237 52.419C58.595 52.9517 58.119 53.3823 57.4957 53.711C56.8837 54.0397 56.1187 54.204 55.2007 54.204ZM61.3634 54V42.1H63.6584V54H61.3634ZM71.2143 54.204C70.0809 54.204 69.0949 53.9547 68.2563 53.456C67.4176 52.946 66.7659 52.2377 66.3013 51.331C65.8366 50.413 65.6043 49.3477 65.6043 48.135C65.6043 46.911 65.8423 45.8343 66.3183 44.905C66.7943 43.9643 67.4799 43.2277 68.3753 42.695C69.2706 42.1623 70.3416 41.896 71.5883 41.896C72.9823 41.896 74.1383 42.2303 75.0563 42.899C75.9856 43.5677 76.5863 44.497 76.8583 45.687H74.2913C74.1213 45.1657 73.8039 44.7577 73.3393 44.463C72.8859 44.157 72.2966 44.004 71.5713 44.004C70.8006 44.004 70.1433 44.174 69.5993 44.514C69.0553 44.854 68.6416 45.33 68.3583 45.942C68.0749 46.554 67.9333 47.285 67.9333 48.135C67.9333 48.9963 68.0749 49.7273 68.3583 50.328C68.6416 50.9287 69.0439 51.3877 69.5653 51.705C70.0979 52.011 70.7213 52.164 71.4353 52.164C72.4779 52.164 73.2656 51.8863 73.7983 51.331C74.3423 50.7643 74.6653 50.0333 74.7673 49.138H71.8433V47.421H77.0793V54H74.9543L74.7843 52.487C74.5349 52.861 74.2403 53.1783 73.9003 53.439C73.5716 53.6883 73.1863 53.8753 72.7443 54C72.3023 54.136 71.7923 54.204 71.2143 54.204ZM79.2267 54V42.1H81.5217L86.9957 50.311V42.1H89.2907V54H86.9957L81.5217 45.806V54H79.2267ZM33.27 79.204C32.4087 79.204 31.638 79.0567 30.958 78.762C30.2893 78.4673 29.7567 78.0367 29.36 77.47C28.9747 76.9033 28.7763 76.2177 28.765 75.413H31.196C31.2073 75.7643 31.298 76.0817 31.468 76.365C31.638 76.6483 31.8703 76.875 32.165 77.045C32.471 77.2037 32.8337 77.283 33.253 77.283C33.6157 77.283 33.9273 77.2263 34.188 77.113C34.46 76.9883 34.6697 76.8183 34.817 76.603C34.9643 76.3877 35.038 76.1327 35.038 75.838C35.038 75.498 34.953 75.2147 34.783 74.988C34.6243 74.7613 34.3977 74.5687 34.103 74.41C33.8197 74.2513 33.4853 74.1097 33.1 73.985C32.726 73.849 32.3293 73.7073 31.91 73.56C30.9693 73.254 30.2497 72.846 29.751 72.336C29.2637 71.826 29.02 71.1517 29.02 70.313C29.02 69.599 29.19 68.987 29.53 68.477C29.8813 67.967 30.363 67.576 30.975 67.304C31.587 67.032 32.284 66.896 33.066 66.896C33.8707 66.896 34.5733 67.0377 35.174 67.321C35.786 67.593 36.2677 67.9897 36.619 68.511C36.9817 69.0323 37.1687 69.6443 37.18 70.347H34.732C34.7207 70.0863 34.6413 69.8427 34.494 69.616C34.358 69.378 34.1653 69.191 33.916 69.055C33.6667 68.9077 33.372 68.834 33.032 68.834C32.7373 68.8227 32.4653 68.868 32.216 68.97C31.978 69.072 31.7853 69.225 31.638 69.429C31.502 69.6217 31.434 69.8653 31.434 70.16C31.434 70.4433 31.502 70.6813 31.638 70.874C31.7853 71.0667 31.9837 71.2367 32.233 71.384C32.4823 71.52 32.777 71.6503 33.117 71.775C33.457 71.8883 33.8253 72.0073 34.222 72.132C34.8113 72.336 35.3553 72.5797 35.854 72.863C36.3527 73.135 36.7493 73.492 37.044 73.934C37.3387 74.376 37.486 74.9597 37.486 75.685C37.486 76.3083 37.3217 76.8863 36.993 77.419C36.6643 77.9517 36.1883 78.3823 35.565 78.711C34.953 79.0397 34.188 79.204 33.27 79.204ZM42.0876 79V68.953H38.6026V67.1H47.8336V68.953H44.3656V79H42.0876ZM54.0671 79.204C53.1944 79.204 52.4011 79.0283 51.6871 78.677C50.9731 78.3257 50.4064 77.7987 49.9871 77.096C49.5678 76.3933 49.3581 75.498 49.3581 74.41V67.1H51.6531V74.427C51.6531 75.0163 51.7494 75.515 51.9421 75.923C52.1348 76.3197 52.4124 76.6143 52.7751 76.807C53.1491 76.9997 53.5911 77.096 54.1011 77.096C54.6224 77.096 55.0644 76.9997 55.4271 76.807C55.8011 76.6143 56.0844 76.3197 56.2771 75.923C56.4698 75.515 56.5661 75.0163 56.5661 74.427V67.1H58.8611V74.41C58.8611 75.498 58.6458 76.3933 58.2151 77.096C57.7844 77.7987 57.2008 78.3257 56.4641 78.677C55.7388 79.0283 54.9398 79.204 54.0671 79.204ZM61.0978 79V67.1H65.0758C66.4585 67.1 67.5975 67.3493 68.4928 67.848C69.3995 68.3353 70.0681 69.0267 70.4988 69.922C70.9408 70.806 71.1618 71.8487 71.1618 73.05C71.1618 74.2513 70.9408 75.2997 70.4988 76.195C70.0681 77.079 69.4051 77.7703 68.5098 78.269C67.6145 78.7563 66.4698 79 65.0758 79H61.0978ZM63.3928 77.028H64.9568C65.9315 77.028 66.6965 76.8693 67.2518 76.552C67.8185 76.2347 68.2208 75.7813 68.4588 75.192C68.6968 74.5913 68.8158 73.8773 68.8158 73.05C68.8158 72.2113 68.6968 71.4973 68.4588 70.908C68.2208 70.3073 67.8185 69.8483 67.2518 69.531C66.6965 69.2137 65.9315 69.055 64.9568 69.055H63.3928V77.028ZM73.1173 79V67.1H75.4123V79H73.1173ZM83.2402 79.204C82.0842 79.204 81.0642 78.9433 80.1802 78.422C79.2962 77.9007 78.6048 77.181 78.1062 76.263C77.6075 75.3337 77.3582 74.2627 77.3582 73.05C77.3582 71.8373 77.6075 70.772 78.1062 69.854C78.6048 68.9247 79.2962 68.1993 80.1802 67.678C81.0642 67.1567 82.0842 66.896 83.2402 66.896C84.4075 66.896 85.4332 67.1567 86.3172 67.678C87.2012 68.1993 87.8868 68.9247 88.3742 69.854C88.8728 70.772 89.1222 71.8373 89.1222 73.05C89.1222 74.2627 88.8728 75.3337 88.3742 76.263C87.8868 77.181 87.2012 77.9007 86.3172 78.422C85.4332 78.9433 84.4075 79.204 83.2402 79.204ZM83.2402 77.147C83.9655 77.147 84.5888 76.9827 85.1102 76.654C85.6428 76.314 86.0565 75.838 86.3512 75.226C86.6458 74.614 86.7932 73.8887 86.7932 73.05C86.7932 72.2 86.6458 71.4747 86.3512 70.874C86.0565 70.262 85.6428 69.7917 85.1102 69.463C84.5888 69.1343 83.9655 68.97 83.2402 68.97C82.5262 68.97 81.9028 69.1343 81.3702 69.463C80.8375 69.7917 80.4238 70.262 80.1292 70.874C79.8345 71.4747 79.6872 72.2 79.6872 73.05C79.6872 73.8887 79.8345 74.614 80.1292 75.226C80.4238 75.838 80.8375 76.314 81.3702 76.654C81.9028 76.9827 82.5262 77.147 83.2402 77.147Z" fill="#BC9B73"/>
<path d="M101.026 29.9668V1.90521H118.678V96.5H1V1.90521H68.891M73.4171 1C73.4171 9.59953 78.2147 27.3417 97.4052 29.5142" stroke="#BC9B73" stroke-width="2"/>
</svg>
