<svg width="159" height="90" viewBox="0 0 159 90" fill="none" xmlns="http://www.w3.org/2000/svg">
<path d="M33.5 84L66 64M33.5 84L17.25 74M33.5 84V28M1 64V26.5L33.5 8M1 64L17.25 74M1 64L17.25 55M33.5 8V28M33.5 8L49.75 17.25M66 64V45.25M66 64L49.5 54.5231M17.25 74V55M17.25 55V36L49.5 54.5231M33.5 28L66 45.25M66 45.25V26.5L49.75 17.25M49.5 54.5231L49.75 17.25" stroke="#BC9B73" stroke-width="2"/>
<path d="M81.14 22V10.18H77.04V8H87.9V10.18H83.82V22H81.14ZM98.6336 22V8H101.334V22H98.6336ZM89.8136 22V8H92.5136V22H89.8136ZM92.1336 15.94V13.76H99.0936V15.94H92.1336ZM104.091 22V8H113.291V10.18H106.791V13.84H112.691V15.94H106.791V19.82H113.291V22H104.091ZM82.7 52.24C81.6867 52.24 80.78 52.0667 79.98 51.72C79.1933 51.3733 78.5667 50.8667 78.1 50.2C77.6467 49.5333 77.4133 48.7267 77.4 47.78H80.26C80.2733 48.1933 80.38 48.5667 80.58 48.9C80.78 49.2333 81.0533 49.5 81.4 49.7C81.76 49.8867 82.1867 49.98 82.68 49.98C83.1067 49.98 83.4733 49.9133 83.78 49.78C84.1 49.6333 84.3467 49.4333 84.52 49.18C84.6933 48.9267 84.78 48.6267 84.78 48.28C84.78 47.88 84.68 47.5467 84.48 47.28C84.2933 47.0133 84.0267 46.7867 83.68 46.6C83.3467 46.4133 82.9533 46.2467 82.5 46.1C82.06 45.94 81.5933 45.7733 81.1 45.6C79.9933 45.24 79.1467 44.76 78.56 44.16C77.9867 43.56 77.7 42.7667 77.7 41.78C77.7 40.94 77.9 40.22 78.3 39.62C78.7133 39.02 79.28 38.56 80 38.24C80.72 37.92 81.54 37.76 82.46 37.76C83.4067 37.76 84.2333 37.9267 84.94 38.26C85.66 38.58 86.2267 39.0467 86.64 39.66C87.0667 40.2733 87.2867 40.9933 87.3 41.82H84.42C84.4067 41.5133 84.3133 41.2267 84.14 40.96C83.98 40.68 83.7533 40.46 83.46 40.3C83.1667 40.1267 82.82 40.04 82.42 40.04C82.0733 40.0267 81.7533 40.08 81.46 40.2C81.18 40.32 80.9533 40.5 80.78 40.74C80.62 40.9667 80.54 41.2533 80.54 41.6C80.54 41.9333 80.62 42.2133 80.78 42.44C80.9533 42.6667 81.1867 42.8667 81.48 43.04C81.7733 43.2 82.12 43.3533 82.52 43.5C82.92 43.6333 83.3533 43.7733 83.82 43.92C84.5133 44.16 85.1533 44.4467 85.74 44.78C86.3267 45.1 86.7933 45.52 87.14 46.04C87.4867 46.56 87.66 47.2467 87.66 48.1C87.66 48.8333 87.4667 49.5133 87.08 50.14C86.6933 50.7667 86.1333 51.2733 85.4 51.66C84.68 52.0467 83.78 52.24 82.7 52.24ZM89.9503 52V38H95.1903C96.3236 38 97.2636 38.1933 98.0103 38.58C98.757 38.9667 99.3103 39.4867 99.6703 40.14C100.03 40.7933 100.21 41.54 100.21 42.38C100.21 43.1533 100.037 43.8667 99.6903 44.52C99.3436 45.1733 98.797 45.7067 98.0503 46.12C97.3036 46.52 96.3503 46.72 95.1903 46.72H92.6503V52H89.9503ZM92.6503 44.54H95.0303C95.897 44.54 96.517 44.3467 96.8903 43.96C97.277 43.56 97.4703 43.0333 97.4703 42.38C97.4703 41.6867 97.277 41.1533 96.8903 40.78C96.517 40.3933 95.897 40.2 95.0303 40.2H92.6503V44.54ZM99.8306 52L104.951 38H108.011L113.111 52H110.251L106.471 41.08L102.671 52H99.8306ZM102.091 48.82L102.811 46.72H109.931L110.631 48.82H102.091ZM120.43 52.24C119.03 52.24 117.823 51.94 116.81 51.34C115.81 50.7267 115.036 49.88 114.49 48.8C113.956 47.7067 113.69 46.4467 113.69 45.02C113.69 43.5933 113.956 42.3333 114.49 41.24C115.036 40.1467 115.81 39.2933 116.81 38.68C117.823 38.0667 119.03 37.76 120.43 37.76C122.123 37.76 123.51 38.18 124.59 39.02C125.67 39.86 126.343 41.0467 126.61 42.58H123.67C123.496 41.8333 123.13 41.2533 122.57 40.84C122.023 40.4133 121.303 40.2 120.41 40.2C119.583 40.2 118.87 40.4 118.27 40.8C117.683 41.1867 117.23 41.74 116.91 42.46C116.59 43.1667 116.43 44.02 116.43 45.02C116.43 46.0067 116.59 46.86 116.91 47.58C117.23 48.3 117.683 48.8533 118.27 49.24C118.87 49.6267 119.583 49.82 120.41 49.82C121.303 49.82 122.023 49.6267 122.57 49.24C123.116 48.84 123.476 48.2867 123.65 47.58H126.61C126.343 49.0333 125.67 50.1733 124.59 51C123.51 51.8267 122.123 52.24 120.43 52.24ZM128.915 52V38H138.115V40.18H131.615V43.84H137.515V45.94H131.615V49.82H138.115V52H128.915ZM84.02 82.24C82.6867 82.24 81.5267 81.9467 80.54 81.36C79.5533 80.76 78.7867 79.9267 78.24 78.86C77.6933 77.78 77.42 76.5267 77.42 75.1C77.42 73.66 77.7 72.3933 78.26 71.3C78.82 70.1933 79.6267 69.3267 80.68 68.7C81.7333 68.0733 82.9933 67.76 84.46 67.76C86.1 67.76 87.46 68.1533 88.54 68.94C89.6333 69.7267 90.34 70.82 90.66 72.22H87.64C87.44 71.6067 87.0667 71.1267 86.52 70.78C85.9867 70.42 85.2933 70.24 84.44 70.24C83.5333 70.24 82.76 70.44 82.12 70.84C81.48 71.24 80.9933 71.8 80.66 72.52C80.3267 73.24 80.16 74.1 80.16 75.1C80.16 76.1133 80.3267 76.9733 80.66 77.68C80.9933 78.3867 81.4667 78.9267 82.08 79.3C82.7067 79.66 83.44 79.84 84.28 79.84C85.5067 79.84 86.4333 79.5133 87.06 78.86C87.7 78.1933 88.08 77.3333 88.2 76.28H84.76V74.26H90.92V82H88.42L88.22 80.22C87.9267 80.66 87.58 81.0333 87.18 81.34C86.7933 81.6333 86.34 81.8533 85.82 82C85.3 82.16 84.7 82.24 84.02 82.24ZM92.5064 82L97.6264 68H100.686L105.786 82H102.926L99.1464 71.08L95.3464 82H92.5064ZM94.7664 78.82L95.4864 76.72H102.606L103.306 78.82H94.7664ZM113.105 82.24C111.705 82.24 110.499 81.94 109.485 81.34C108.485 80.7267 107.712 79.88 107.165 78.8C106.632 77.7067 106.365 76.4467 106.365 75.02C106.365 73.5933 106.632 72.3333 107.165 71.24C107.712 70.1467 108.485 69.2933 109.485 68.68C110.499 68.0667 111.705 67.76 113.105 67.76C114.799 67.76 116.185 68.18 117.265 69.02C118.345 69.86 119.019 71.0467 119.285 72.58H116.345C116.172 71.8333 115.805 71.2533 115.245 70.84C114.699 70.4133 113.979 70.2 113.085 70.2C112.259 70.2 111.545 70.4 110.945 70.8C110.359 71.1867 109.905 71.74 109.585 72.46C109.265 73.1667 109.105 74.02 109.105 75.02C109.105 76.0067 109.265 76.86 109.585 77.58C109.905 78.3 110.359 78.8533 110.945 79.24C111.545 79.6267 112.259 79.82 113.085 79.82C113.979 79.82 114.699 79.6267 115.245 79.24C115.792 78.84 116.152 78.2867 116.325 77.58H119.285C119.019 79.0333 118.345 80.1733 117.265 81C116.185 81.8267 114.799 82.24 113.105 82.24ZM124.714 82V70.18H120.614V68H131.474V70.18H127.394V82H124.714ZM138.808 82.24C137.781 82.24 136.848 82.0333 136.008 81.62C135.168 81.2067 134.501 80.5867 134.008 79.76C133.514 78.9333 133.268 77.88 133.268 76.6V68H135.968V76.62C135.968 77.3133 136.081 77.9 136.308 78.38C136.534 78.8467 136.861 79.1933 137.288 79.42C137.728 79.6467 138.248 79.76 138.848 79.76C139.461 79.76 139.981 79.6467 140.408 79.42C140.848 79.1933 141.181 78.8467 141.408 78.38C141.634 77.9 141.748 77.3133 141.748 76.62V68H144.448V76.6C144.448 77.88 144.194 78.9333 143.688 79.76C143.181 80.5867 142.494 81.2067 141.628 81.62C140.774 82.0333 139.834 82.24 138.808 82.24ZM147.079 82V68H152.299C153.433 68 154.366 68.1933 155.099 68.58C155.833 68.9667 156.379 69.4867 156.739 70.14C157.099 70.78 157.279 71.4933 157.279 72.28C157.279 73.0267 157.106 73.7267 156.759 74.38C156.413 75.02 155.866 75.54 155.119 75.94C154.386 76.3267 153.439 76.52 152.279 76.52H149.779V82H147.079ZM154.339 82L151.459 75.84H154.379L157.419 82H154.339ZM149.779 74.56H152.139C152.953 74.56 153.553 74.36 153.939 73.96C154.326 73.56 154.519 73.0333 154.519 72.38C154.519 71.7267 154.326 71.2133 153.939 70.84C153.566 70.4533 152.966 70.26 152.139 70.26H149.779V74.56Z" fill="#BC9B73"/>
</svg>
