<svg width="80" height="70" viewBox="0 0 80 70" fill="none" xmlns="http://www.w3.org/2000/svg">
<path d="M60.229 2.05132C60.0977 1.885 59.908 1.885 59.7694 2.05132L58.3906 3.71456H29.9978V0.554412C29.9978 0.243941 29.8373 0 29.633 0H21.8709C21.6667 0 21.5062 0.243941 21.5062 0.554412V3.71456H0.364759C0.160494 3.71456 0 3.9585 0 4.26897V34.4733C0 34.7838 0.160494 35.0277 0.364759 35.0277H3.69136V61.6506H2.75028C2.54602 61.6506 2.38552 61.8945 2.38552 62.205V69.4456C2.38552 69.7561 2.54602 70 2.75028 70H23.826H44.5954H75.5343C75.7385 70 75.899 69.7561 75.899 69.4456V62.7483H76.2492C76.4534 62.7483 76.6139 62.5044 76.6139 62.1939V26.8113L78.2772 28.8183C78.3429 28.8959 78.4231 28.9403 78.5034 28.9403C78.6128 28.9403 78.715 28.8738 78.7879 28.7296L79.9187 26.5896C79.977 26.4787 80.0062 26.3235 79.9989 26.1793C79.9916 26.0352 79.9405 25.9021 79.8603 25.8023L60.229 2.05132ZM22.2357 1.10882H29.2609V3.70347H22.2357V1.10882ZM57.4787 4.82338L40.408 25.4364H26.1678C25.9635 25.4364 25.803 25.6803 25.803 25.9908V28.3859V31.4019H0.729518V4.82338H57.4787ZM75.8917 61.6395H44.0702V25.9465L59.9882 6.74164L75.8917 25.9354V61.6395ZM43.3406 61.6506H38.8176V38.576C38.8176 38.2655 38.6571 38.0215 38.4529 38.0215H30.1728C29.9686 38.0215 29.8081 38.2655 29.8081 38.576V61.6506H27.0359H25.0589V35.0277H26.1605C26.3648 35.0277 26.5253 34.7838 26.5253 34.4733V28.9403H41.4512C41.5314 28.9403 41.6117 28.8959 41.6773 28.8183L43.3333 26.8224V61.6506H43.3406ZM38.0881 61.6506H30.5376V39.1304H38.0881V61.6506ZM6.16442 61.6506V50.9504H7.04714V60.076C7.04714 60.3865 7.20763 60.6304 7.4119 60.6304C7.61616 60.6304 7.77666 60.3865 7.77666 60.076V50.9504H8.81257V60.076C8.81257 60.3865 8.97306 60.6304 9.17733 60.6304C9.38159 60.6304 9.54209 60.3865 9.54209 60.076V50.9504H10.578V60.076C10.578 60.3865 10.7385 60.6304 10.9428 60.6304C11.147 60.6304 11.3075 60.3865 11.3075 60.076V50.9504H12.3434V60.076C12.3434 60.3865 12.5039 60.6304 12.7082 60.6304C12.9125 60.6304 13.073 60.3865 13.073 60.076V50.9504H14.1089V60.076C14.1089 60.3865 14.2694 60.6304 14.4736 60.6304C14.6779 60.6304 14.8384 60.3865 14.8384 60.076V50.9504H15.8743V60.076C15.8743 60.3865 16.0348 60.6304 16.2391 60.6304C16.4433 60.6304 16.6038 60.3865 16.6038 60.076V50.9504H17.6397V60.076C17.6397 60.3865 17.8002 60.6304 18.0045 60.6304C18.2088 60.6304 18.3693 60.3865 18.3693 60.076V50.9504H19.4052V60.076C19.4052 60.3865 19.5657 60.6304 19.7699 60.6304C19.9742 60.6304 20.1347 60.3865 20.1347 60.076V50.9504H21.1706V60.076C21.1706 60.3865 21.3311 60.6304 21.5354 60.6304C21.7396 60.6304 21.9001 60.3865 21.9001 60.076V50.9504H22.6078V61.6506H6.16442ZM25.803 33.9189H24.7015H22.9579H5.79967H4.05612H0.729518V32.5107H25.803V33.9189ZM22.5932 35.0277V49.8416H6.16442V35.0277H22.5932ZM23.3227 35.0277H24.3367V61.6506H23.3227V35.0277ZM4.42088 35.0277H5.43491V61.6506H4.42088V35.0277ZM3.11504 62.7594H4.05612H5.79967H22.9579H24.7015H26.6785V64.0678H25.4091C25.2048 64.0678 25.0443 64.3117 25.0443 64.6222V66.485H23.8333C23.6291 66.485 23.4686 66.729 23.4686 67.0394V68.9023H3.11504V62.7594ZM24.1908 67.5828H25.4018C25.6061 67.5828 25.7666 67.3388 25.7666 67.0284V65.1655H27.0359C27.2402 65.1655 27.4007 64.9216 27.4007 64.6111V62.7483H30.1728H38.4529H44.2307V68.8801H24.1908V67.5828ZM75.1768 68.8912H44.9675V62.7594H75.1768V68.8912ZM78.4523 27.6097L60.2144 5.59956C60.0758 5.43323 59.9007 5.41106 59.7694 5.59956H59.7621L54.3199 12.1749L41.3345 27.8425H26.5326V26.5563H40.5393C40.6195 26.5563 40.6998 26.512 40.7654 26.4343L58.7553 4.7125L60.0028 3.2045L79.1235 26.3456L78.4523 27.6097Z" fill="#BC9B73"/>
<path d="M58.0034 13.3286V23.053C58.0034 23.3634 58.1639 23.6074 58.3682 23.6074H61.6437C61.848 23.6074 62.0085 23.3634 62.0085 23.053V13.3286C62.0085 13.0181 61.848 12.7742 61.6437 12.7742H58.3682C58.1639 12.7742 58.0034 13.0292 58.0034 13.3286ZM58.7329 13.883H61.279V22.4985H58.7329V13.883Z" fill="#BC9B73"/>
<path d="M51.4599 35.0276H46.7472C46.5429 35.0276 46.3824 35.2715 46.3824 35.582V53.8998C46.3824 54.2102 46.5429 54.4542 46.7472 54.4542H51.4599H59.6961H67.9324H72.6451C72.8494 54.4542 73.0098 54.2102 73.0098 53.8998V35.582C73.0098 35.2715 72.8494 35.0276 72.6451 35.0276H67.9324H59.6961H51.4599ZM47.112 36.1364H51.0951V53.3453H47.112V36.1364ZM51.8246 36.1364H59.3314V53.3453H51.8246V36.1364ZM72.2803 53.3453H68.2972V36.1364H72.2803V53.3453ZM67.5603 53.3453H60.0536V36.1364H67.5603V53.3453Z" fill="#BC9B73"/>
<path d="M10.4546 48.8884C10.6589 48.8884 10.8194 48.6444 10.8194 48.334V37.8889H17.3267V48.334C17.3267 48.6444 17.4872 48.8884 17.6914 48.8884C17.8957 48.8884 18.0562 48.6444 18.0562 48.334V37.3344C18.0562 37.024 17.8957 36.78 17.6914 36.78H10.4546C10.2503 36.78 10.0898 37.024 10.0898 37.3344V48.334C10.0898 48.6444 10.2503 48.8884 10.4546 48.8884Z" fill="#BC9B73"/>
<path d="M56.7642 38.1878L53.7659 42.7451C53.62 42.9668 53.62 43.3106 53.7659 43.5323C53.8389 43.6432 53.9337 43.6987 54.0213 43.6987C54.1088 43.6987 54.2109 43.6432 54.2766 43.5323L57.2749 38.9751C57.4208 38.7533 57.4208 38.4096 57.2749 38.1878C57.1363 37.966 56.9028 37.966 56.7642 38.1878Z" fill="#BC9B73"/>
<path d="M56.7636 41.8914L53.3859 47.0253C53.24 47.247 53.24 47.5908 53.3859 47.8125C53.4589 47.9234 53.5537 47.9789 53.6413 47.9789C53.7288 47.9789 53.8309 47.9234 53.8966 47.8125L57.2742 42.6787C57.4202 42.4569 57.4202 42.1132 57.2742 41.8914C57.1356 41.6807 56.9022 41.6807 56.7636 41.8914Z" fill="#BC9B73"/>
<path d="M61.9147 47.3244C62.0095 47.3244 62.1043 47.2689 62.17 47.1581L66.7587 40.1836C66.9046 39.9618 66.9046 39.6181 66.7587 39.3963C66.6127 39.1745 66.3866 39.1745 66.2407 39.3963L61.652 46.3708C61.5061 46.5926 61.5061 46.9363 61.652 47.1581C61.725 47.2689 61.8198 47.3244 61.9147 47.3244Z" fill="#BC9B73"/>
<path d="M61.7458 51.8703C61.8407 51.8703 61.9355 51.8149 62.0012 51.704L65.3861 46.5591C65.532 46.3373 65.532 45.9936 65.3861 45.7718C65.2402 45.55 65.0141 45.55 64.8682 45.7718L61.4832 50.9167C61.3373 51.1385 61.3373 51.4822 61.4832 51.704C61.5562 51.8149 61.651 51.8703 61.7458 51.8703Z" fill="#BC9B73"/>
</svg>
