<svg width="80" height="70" viewBox="0 0 80 70" fill="none" xmlns="http://www.w3.org/2000/svg">
<path d="M0.440154 29.6435H1.24804V30.9324C1.24804 31.1883 1.44553 31.3894 1.69688 31.3894H2.43297V65.3473H2.34319C2.09185 65.3473 1.89436 65.5484 1.89436 65.8044V69.543C1.89436 69.7989 2.09185 70 2.34319 70H28.6088H31.1582H48.7254H51.2748H77.6302C77.8815 70 78.079 69.7989 78.079 69.543V65.8044C78.079 65.5484 77.8815 65.3473 77.6302 65.3473H77.5404V31.3894H78.3842C78.6355 31.3894 78.833 31.1883 78.833 30.9324V29.6435H79.5332C79.7845 29.6435 79.982 29.4424 79.982 29.1865V27.6782C79.991 27.6508 80 27.6234 80 27.5868C80 27.5229 79.991 27.468 79.9641 27.4223L78.1059 7.33089V4.02194C78.2585 3.94881 78.3662 3.79342 78.3662 3.6106V0.457038C78.3662 0.201097 78.1688 0 77.9174 0H73.1418C72.8905 0 72.693 0.201097 72.693 0.457038V3.6106C72.693 3.79342 72.8007 3.94881 72.9533 4.02194V6.59963H6.93025V4.03108C7.09183 3.95795 7.19955 3.80256 7.19955 3.6106V0.457038C7.19955 0.201097 7.00207 0 6.75072 0H1.96618C1.71483 0 1.51735 0.201097 1.51735 0.457038V3.6106C1.51735 3.80256 1.62507 3.95795 1.78665 4.03108V8.29982L0.000294296 27.5411C0.000294296 27.5503 0.000294296 27.5503 0.000294296 27.5594C0.000294296 27.5686 0.000294296 27.5777 0.000294296 27.5777V29.1773C-0.00868233 29.4424 0.188808 29.6435 0.440154 29.6435ZM32.9625 51.8282V50.4753C32.9625 50.2194 32.765 50.0183 32.5136 50.0183H32.37V49.9269C32.37 49.6709 32.1725 49.4698 31.9212 49.4698H31.3467L40.045 43.1718L48.6357 49.3601V49.4698H48.1599C47.9086 49.4698 47.7111 49.6709 47.7111 49.9269V50.0183H47.4597C47.2084 50.0183 47.0109 50.2194 47.0109 50.4753V51.8282C46.8493 51.8921 46.7326 52.0567 46.7326 52.2486V65.064C46.7326 65.1737 46.7775 65.2651 46.8314 65.3382H44.6231C44.6859 65.2651 44.7219 65.1645 44.7219 65.064V52.2578C44.7219 52.0658 44.6052 51.9013 44.4436 51.8373V51.5357C44.4436 51.2797 44.2461 51.0786 43.9948 51.0786H35.9876C35.7363 51.0786 35.5388 51.2797 35.5388 51.5357V51.8373C35.3772 51.9013 35.2605 52.0658 35.2605 52.2578V65.0731C35.2605 65.1828 35.3054 65.2742 35.3592 65.3473H33.151C33.2138 65.2742 33.2497 65.1737 33.2497 65.0731V52.2578C33.2407 52.0658 33.124 51.9013 32.9625 51.8282ZM31.598 68.1353H48.2676V69.0951H31.598V68.1353ZM48.2766 67.2212H31.607V66.2614H48.2766V67.2212ZM43.8152 52.6782V64.6435C43.6536 64.7075 43.5369 64.872 43.5369 65.064V65.3382H36.4274V65.064C36.4274 64.872 36.3108 64.7075 36.1492 64.6435V52.6782C36.3108 52.6143 36.4274 52.4497 36.4274 52.2578V51.9835H43.5369V52.2578C43.5369 52.4497 43.6536 52.6143 43.8152 52.6782ZM2.79203 66.2614H2.8818H28.16V69.0859H2.79203V66.2614ZM29.0576 69.0859V66.2614H30.7093V67.6782V69.0951H29.0576V69.0859ZM49.1743 69.0859V67.6691V66.2523H50.826V69.0768H49.1743V69.0859ZM77.1724 69.0859H51.7146V66.2614H77.0736H77.1634V69.0859H77.1724ZM79.0754 28.7294H78.3752C78.1239 28.7294 77.9264 28.9305 77.9264 29.1865V30.4753H77.0826C76.8312 30.4753 76.6338 30.6764 76.6338 30.9324V65.3473H51.3376C51.3107 65.3473 51.2927 65.3291 51.2658 65.3291H48.7164C48.6985 65.3291 48.6805 65.3382 48.6626 65.3382H47.8996V65.064C47.8996 64.872 47.7829 64.7075 47.6213 64.6435V52.6782C47.7829 52.6143 47.8996 52.4497 47.8996 52.2578V50.9324H48.1509C48.4023 50.9324 48.5998 50.7313 48.5998 50.4753V50.3839H49.0755C49.3269 50.3839 49.5243 50.1828 49.5243 49.9269V49.1225C49.5243 48.9762 49.4525 48.8391 49.3358 48.7477L40.2964 42.2395C40.1438 42.1298 39.9373 42.1298 39.7757 42.2395L30.6286 48.8208C30.5119 48.9031 30.44 49.0494 30.44 49.1956V49.9269C30.44 50.1828 30.6375 50.3839 30.8889 50.3839H31.4634V50.4753C31.4634 50.7313 31.6609 50.9324 31.9122 50.9324H32.0558V52.2578C32.0558 52.4497 32.1725 52.6143 32.3341 52.6782V64.6435C32.1725 64.7075 32.0558 64.872 32.0558 65.064V65.3382H31.212C31.1941 65.3382 31.1761 65.3291 31.1582 65.3291H28.6088C28.5819 65.3291 28.5639 65.3382 28.537 65.3473H3.33063V30.9324C3.33063 30.6764 3.13314 30.4753 2.8818 30.4753H2.14571V29.1865C2.14571 28.9305 1.94822 28.7294 1.69688 28.7294H0.888985V28.0439H79.0754V28.7294ZM73.842 7.05667V4.06764H77.1993V7.34918V9.41499H73.842V7.05667ZM73.5817 0.914077H77.4596V3.15356H73.5817V0.914077ZM2.67534 8.3181V4.06764H6.02362V7.05667V9.41499H2.67534V8.3181ZM2.40604 0.914077H6.29292V3.15356H2.40604V0.914077ZM2.48682 10.3291H6.47245C6.72379 10.3291 6.92128 10.128 6.92128 9.87203V7.51371H72.9444V9.87203C72.9444 10.128 73.1418 10.3291 73.3932 10.3291H77.4776L79.0305 27.1298H0.933871L2.48682 10.3291Z" fill="#BC9B73"/>
<path d="M7.59434 44.4882H11.2837H17.7289H24.1742H27.8636C28.1149 44.4882 28.3124 44.2871 28.3124 44.0312V34.4334C28.3124 34.1774 28.1149 33.9763 27.8636 33.9763H24.1742H17.7289H11.2837H7.59434C7.34299 33.9763 7.14551 34.1774 7.14551 34.4334V44.0312C7.14551 44.278 7.35197 44.4882 7.59434 44.4882ZM27.4057 43.5741H24.614V34.8904H27.4057V43.5741ZM23.7164 43.5741H18.1688V34.8904H23.7164V43.5741ZM17.2801 43.5741H11.7326V34.8904H17.2801V43.5741ZM8.04317 34.8813H10.8349V43.565H8.04317V34.8813Z" fill="#BC9B73"/>
<path d="M7.59434 60.4023H11.2837H17.7289H24.1742H27.8636C28.1149 60.4023 28.3124 60.2012 28.3124 59.9452V50.3474C28.3124 50.0915 28.1149 49.8904 27.8636 49.8904H24.1742H17.7289H11.2837H7.59434C7.34299 49.8904 7.14551 50.0915 7.14551 50.3474V59.9452C7.14551 60.192 7.35197 60.4023 7.59434 60.4023ZM27.4057 59.4882H24.614V50.8045H27.4057V59.4882ZM23.7164 59.4882H18.1688V50.8045H23.7164V59.4882ZM17.2801 59.4882H11.7326V50.8045H17.2801V59.4882ZM8.04317 50.8045H10.8349V59.4882H8.04317V50.8045Z" fill="#BC9B73"/>
<path d="M52.5134 44.4882H56.2028H62.648H69.0933H72.7826C73.034 44.4882 73.2315 44.2871 73.2315 44.0312V34.4334C73.2315 34.1774 73.034 33.9763 72.7826 33.9763H69.0933H62.648H56.2028H52.5134C52.2621 33.9763 52.0646 34.1774 52.0646 34.4334V44.0312C52.0646 44.278 52.2621 44.4882 52.5134 44.4882ZM72.3248 43.5741H69.5331V34.8904H72.3248V43.5741ZM68.6354 43.5741H63.0879V34.8904H68.6354V43.5741ZM62.1902 43.5741H56.6427V34.8904H62.1902V43.5741ZM52.9622 34.8813H55.754V43.565H52.9622V34.8813Z" fill="#BC9B73"/>
<path d="M52.5134 60.4023H56.2028H62.648H69.0933H72.7826C73.034 60.4023 73.2315 60.2012 73.2315 59.9452V50.3474C73.2315 50.0915 73.034 49.8904 72.7826 49.8904H69.0933H62.648H56.2028H52.5134C52.2621 49.8904 52.0646 50.0915 52.0646 50.3474V59.9452C52.0646 60.192 52.2621 60.4023 52.5134 60.4023ZM72.3248 59.4882H69.5331V50.8045H72.3248V59.4882ZM68.6354 59.4882H63.0879V50.8045H68.6354V59.4882ZM62.1902 59.4882H56.6427V50.8045H62.1902V59.4882ZM52.9622 50.8045H55.754V59.4882H52.9622V50.8045Z" fill="#BC9B73"/>
</svg>
