<svg width="80" height="70" viewBox="0 0 80 70" fill="none" xmlns="http://www.w3.org/2000/svg">
<path d="M79.6704 25.5073H67.2765V19.3405H70.9089C71.0935 19.3405 71.2386 19.0801 71.2386 18.7487V8.54582C71.2386 8.2144 71.0935 7.954 70.9089 7.954H42.9304V0.591816C42.9304 0.260399 42.7853 0 42.6007 0H2.08323C1.89864 0 1.75361 0.260399 1.75361 0.591816V10.9841C1.75361 11.3155 1.89864 11.5759 2.08323 11.5759H3.86322V25.9334H2.08323C1.89864 25.9334 1.75361 26.1938 1.75361 26.5252V36.9175C1.75361 37.2489 1.89864 37.5093 2.08323 37.5093H8.00988V65.1589H0.329625C0.145035 65.1589 0 65.4193 0 65.7508V69.4082C0 69.7396 0.145035 70 0.329625 70H79.6704C79.855 70 80 69.7396 80 69.4082V65.7508C80 65.4193 79.855 65.1589 79.6704 65.1589H74.0536V55.4177C74.0536 55.0862 73.9085 54.8258 73.7239 54.8258H71.6077V42.741H73.7239C73.9085 42.741 74.0536 42.4806 74.0536 42.1491V37.4975H79.6704C79.855 37.4975 80 37.2371 80 36.9056V26.0991C80 25.7677 79.855 25.5073 79.6704 25.5073ZM66.6172 26.0991V32.8576H49.9646V19.3405H66.6172V26.0991ZM4.52247 11.5641H34.3403V25.9215H4.52247V11.5641ZM2.41286 27.1052H34.67C34.8545 27.1052 34.9996 26.8448 34.9996 26.5134V10.9723C34.9996 10.6408 34.8545 10.3804 34.67 10.3804H2.41286V1.17179H42.2711V36.302H8.34611H8.33951H2.41946V27.1052H2.41286ZM79.3408 68.8045H0.65925V66.3307H8.33951H19.2897H25.7239H26.9897H33.7997H35.0655H41.8756H43.1413H79.3408V68.8045ZM59.6226 54.8258V42.741H65.7734V54.8258H59.6226ZM58.9633 54.8258H58.3568V42.741H58.9633V54.8258ZM50.8875 54.8258H50.281V42.741H50.8875V54.8258ZM42.8117 65.1471H42.2052V42.741H42.8117V65.1471ZM35.3951 42.741H41.5459V65.1471H35.3951V42.741ZM34.7359 65.1471H34.1294V42.741H34.7359V65.1471ZM33.4701 65.1471H27.3193V42.741H33.4701V65.1471ZM26.6601 65.1471H26.0536V42.741H26.6601V65.1471ZM25.3943 65.1471H19.6193V42.741H25.3943V65.1471ZM45.6333 55.4177V65.1471H43.471V42.741H49.6217V54.8258H45.9629C45.7783 54.8258 45.6333 55.0862 45.6333 55.4177ZM51.5468 42.741H57.6976V54.8258H51.5468V42.741ZM66.4326 42.741H67.0391V54.8258H66.4326V42.741ZM73.3943 65.1471H46.2925V56.0095H66.103H67.3688H71.2781H73.3943V65.1471ZM70.9485 54.8258H67.6984V42.741H70.9485V54.8258ZM73.3943 41.5573H71.2847H71.2781H67.3688H66.103H19.2897C19.1051 41.5573 18.96 41.8177 18.96 42.1491V65.1471H8.66913V37.4975H42.5942H73.3877V41.5573H73.3943ZM79.3408 36.3138H73.7305H73.7239H42.9304V9.13764H70.5793V18.1569H49.6349C49.4504 18.1569 49.3053 18.4173 49.3053 18.7487V33.4494C49.3053 33.7808 49.4504 34.0413 49.6349 34.0413H66.9468C67.1314 34.0413 67.2765 33.7808 67.2765 33.4494V26.6909H79.3408V36.3138Z" fill="#BC9B73"/>
<path d="M10.4557 12.2388C10.2711 12.2388 10.1261 12.4992 10.1261 12.8306V24.0751C10.1261 24.4065 10.2711 24.6669 10.4557 24.6669C10.6403 24.6669 10.7853 24.4065 10.7853 24.0751V12.8306C10.7853 12.4992 10.6337 12.2388 10.4557 12.2388Z" fill="#BC9B73"/>
<path d="M18.0901 12.2388C17.9055 12.2388 17.7604 12.4992 17.7604 12.8306V24.0751C17.7604 24.4065 17.9055 24.6669 18.0901 24.6669C18.2747 24.6669 18.4197 24.4065 18.4197 24.0751V12.8306C18.4197 12.4992 18.2747 12.2388 18.0901 12.2388Z" fill="#BC9B73"/>
<path d="M25.7234 12.2388C25.5388 12.2388 25.3938 12.4992 25.3938 12.8306V24.0751C25.3938 24.4065 25.5388 24.6669 25.7234 24.6669C25.908 24.6669 26.053 24.4065 26.053 24.0751V12.8306C26.053 12.4992 25.908 12.2388 25.7234 12.2388Z" fill="#BC9B73"/>
<path d="M54.7641 32.2303C54.9487 32.2303 55.0937 31.9699 55.0937 31.6384V20.7017C55.0937 20.3703 54.9487 20.1099 54.7641 20.1099C54.5795 20.1099 54.4344 20.3703 54.4344 20.7017V31.6384C54.4344 31.9699 54.5795 32.2303 54.7641 32.2303Z" fill="#BC9B73"/>
<path d="M60.8158 32.2303C61.0004 32.2303 61.1455 31.9699 61.1455 31.6384V20.7017C61.1455 20.3703 61.0004 20.1099 60.8158 20.1099C60.6312 20.1099 60.4862 20.3703 60.4862 20.7017V31.6384C60.4862 31.9699 60.6378 32.2303 60.8158 32.2303Z" fill="#BC9B73"/>
<path d="M21.2212 51.2513C21.3069 51.2513 21.3926 51.1921 21.452 51.0737L24.089 46.3392C24.2208 46.1025 24.2208 45.7356 24.089 45.4988C23.9571 45.2621 23.7527 45.2621 23.6209 45.4988L20.9839 50.2334C20.852 50.4701 20.852 50.837 20.9839 51.0737C21.0498 51.1921 21.1355 51.2513 21.2212 51.2513Z" fill="#BC9B73"/>
<path d="M40.8211 55.8555C40.6892 55.6188 40.4849 55.6188 40.353 55.8555L37.7358 60.5545C37.6039 60.7913 37.6039 61.1582 37.7358 61.3949C37.8017 61.5133 37.8874 61.5725 37.9665 61.5725C38.0522 61.5725 38.1379 61.5133 38.1973 61.3949L40.8145 56.6959C40.9463 56.4592 40.9464 56.0922 40.8211 55.8555Z" fill="#BC9B73"/>
<path d="M28.2422 62.6141C28.3081 62.7325 28.3938 62.7916 28.4729 62.7916C28.552 62.7916 28.6443 62.7325 28.7037 62.6141L31.5912 57.4298C31.723 57.1931 31.723 56.8261 31.5912 56.5894C31.4593 56.3527 31.2549 56.3527 31.1231 56.5894L28.2356 61.7737C28.1103 62.0104 28.1103 62.3774 28.2422 62.6141Z" fill="#BC9B73"/>
<path d="M47.9075 45.4988C47.7756 45.2621 47.5712 45.2621 47.4394 45.4988L44.0772 51.5354C43.9454 51.7721 43.9454 52.139 44.0772 52.3757C44.1431 52.4941 44.2288 52.5533 44.3079 52.5533C44.3871 52.5533 44.4794 52.4941 44.5387 52.3757L47.9009 46.3392C48.0327 46.1025 48.0327 45.7356 47.9075 45.4988Z" fill="#BC9B73"/>
<path d="M48.6461 48.5171C48.5142 48.2804 48.3098 48.2804 48.178 48.5171L46.9979 50.6358C46.8661 50.8726 46.8661 51.2395 46.9979 51.4762C47.0639 51.5946 47.1496 51.6538 47.2287 51.6538C47.3144 51.6538 47.4001 51.5946 47.4594 51.4762L48.6395 49.3575C48.7779 49.1208 48.7779 48.742 48.6461 48.5171Z" fill="#BC9B73"/>
<path d="M57.2164 45.4988C57.0845 45.2621 56.8802 45.2621 56.7483 45.4988L54.3421 49.8191C54.2102 50.0558 54.2102 50.4227 54.3421 50.6595C54.408 50.7778 54.4937 50.837 54.5728 50.837C54.6585 50.837 54.7442 50.7778 54.8035 50.6595L57.2098 46.3392C57.3482 46.1025 57.3482 45.7356 57.2164 45.4988Z" fill="#BC9B73"/>
<path d="M63.1497 47.014C63.0178 46.7772 62.8135 46.7772 62.6816 47.014L60.895 50.2216C60.7632 50.4583 60.7632 50.8253 60.895 51.062C60.961 51.1804 61.0467 51.2395 61.1258 51.2395C61.2049 51.2395 61.2972 51.1804 61.3565 51.062L63.1431 47.8543C63.2815 47.6176 63.2815 47.2507 63.1497 47.014Z" fill="#BC9B73"/>
</svg>
